<?xml version="1.0" standalone="no"?>
<!DOCTYPE svg PUBLIC "-//W3C//DTD SVG 20010904//EN"
 "http://www.w3.org/TR/2001/REC-SVG-20010904/DTD/svg10.dtd">
<svg version="1.0" xmlns="http://www.w3.org/2000/svg"
 width="225.000000pt" height="225.000000pt" viewBox="0 0 225.000000 225.000000"
 preserveAspectRatio="xMidYMid meet">
<g transform="translate(0.000000,225.000000) scale(0.100000,-0.100000)"
fill="#000000" stroke="none">
<path d="M1366 1914 c-17 -12 -18 -14 -3 -14 9 0 17 5 17 11 0 6 7 9 15 6 8
-4 16 -3 19 1 8 14 -29 11 -48 -4z"/>
<path d="M350 1289 l0 -621 110 140 110 140 0 219 0 218 155 -2 c98 -1 153 2
150 8 -4 5 -10 7 -15 4 -5 -3 -29 20 -55 50 -26 30 -52 52 -58 48 -6 -3 -7 -1
-3 5 4 7 -1 23 -11 37 -16 22 -25 24 -90 25 l-73 0 0 65 0 65 293 0 292 1 70
90 c39 50 76 99 84 110 13 19 7 19 -473 19 l-486 0 0 -621z m50 597 c0 7 62
10 203 8 111 -1 310 -3 442 -4 132 -1 234 -4 227 -7 -6 -2 -10 -9 -6 -14 3 -5
1 -9 -4 -9 -6 0 -13 -12 -16 -26 -6 -21 -9 -24 -21 -14 -8 7 -12 17 -8 24 3 6
0 5 -8 -3 -11 -10 -11 -15 -1 -18 6 -3 12 -11 12 -19 0 -9 -4 -13 -9 -9 -5 3
-12 -3 -15 -12 -3 -10 -17 -30 -31 -45 l-26 -28 -288 0 c-328 0 -301 8 -301
-91 0 -45 4 -61 16 -66 13 -5 13 -7 2 -14 -9 -6 -9 -9 -1 -9 6 0 15 5 18 10 3
6 11 10 16 10 6 0 7 -4 4 -10 -3 -5 -2 -10 4 -10 5 0 13 5 16 10 10 17 61 11
85 -10 13 -11 19 -20 15 -20 -4 0 0 -9 10 -20 17 -19 14 -25 -10 -20 -5 1 -7
-2 -2 -6 14 -14 49 -15 41 -2 -4 7 -4 10 0 6 4 -3 6 -9 4 -11 -2 -3 8 -17 22
-32 l25 -26 -115 1 c-63 1 -123 -1 -133 -5 -16 -7 -18 -25 -17 -229 1 -203 0
-221 -16 -218 -12 3 -15 -1 -11 -12 7 -17 -20 -49 -34 -41 -5 4 -6 0 -4 -8 3
-7 -3 -22 -15 -32 -11 -10 -20 -23 -20 -29 -1 -14 -50 -75 -50 -62 0 5 7 18
17 28 9 10 11 18 5 18 -6 0 -12 6 -15 13 -2 6 -3 4 -1 -6 1 -10 -3 -29 -11
-43 -12 -24 -13 -23 -18 23 -4 27 -7 277 -7 557 0 280 -2 511 -4 514 -3 2 1
10 7 17 9 9 14 10 19 1 5 -7 8 -7 8 0z"/>
<path d="M738 1873 c12 -2 32 -2 45 0 12 2 2 4 -23 4 -25 0 -35 -2 -22 -4z"/>
<path d="M1121 1763 c-1 -6 4 -15 9 -18 6 -4 7 -12 4 -18 -4 -7 5 -1 19 12 15
14 27 26 27 27 0 4 -25 -2 -37 -9 -6 -4 -14 -1 -16 5 -4 9 -6 10 -6 1z"/>
<path d="M668 1533 c7 -3 16 -2 19 1 4 3 -2 6 -13 5 -11 0 -14 -3 -6 -6z"/>
<path d="M564 1429 c0 -13 3 -15 13 -7 7 6 13 12 13 13 0 2 -6 5 -13 8 -7 3
-13 -3 -13 -14z"/>
<path d="M605 1420 c-3 -5 -1 -10 4 -10 6 0 11 5 11 10 0 6 -2 10 -4 10 -3 0
-8 -4 -11 -10z"/>
<path d="M384 930 c0 -69 1 -97 3 -62 2 34 2 90 0 125 -2 34 -3 6 -3 -63z"/>
<path d="M484 945 c3 -27 16 -48 16 -26 0 7 5 9 12 5 7 -4 8 -3 4 5 -4 6 -2
18 4 26 9 11 9 15 1 15 -6 0 -11 -5 -11 -11 0 -8 -4 -8 -14 0 -12 10 -14 8
-12 -14z"/>
<path d="M442 860 c-18 -29 -15 -38 4 -12 9 13 14 25 12 27 -2 2 -9 -5 -16
-15z"/>
<path d="M1269 1714 c-166 -212 -194 -246 -184 -227 3 7 -4 26 -16 43 l-23 30
-124 0 -123 0 36 -45 c22 -26 34 -49 29 -56 -4 -7 -3 -9 3 -6 6 4 20 -5 33
-18 23 -25 23 -25 4 -47 l-19 -23 22 18 c21 18 22 18 47 -15 14 -18 93 -120
176 -225 l151 -193 120 0 c65 0 119 2 119 4 0 4 -112 147 -270 346 -11 14 -20
28 -20 31 0 5 28 43 143 192 38 49 40 59 11 63 -11 2 -12 -1 -4 -11 8 -9 7
-14 -5 -19 -8 -3 -15 -12 -15 -19 0 -10 -11 -13 -35 -12 -19 2 -32 -1 -30 -6
3 -4 11 -6 19 -3 18 7 16 -26 -3 -48 -8 -10 -21 -18 -28 -18 -7 0 -13 -5 -13
-11 0 -5 6 -7 13 -3 6 4 3 -3 -8 -17 -11 -13 -22 -26 -24 -29 -2 -3 0 6 3 20
7 24 6 24 -8 6 -9 -10 -13 -23 -10 -27 3 -5 0 -9 -6 -9 -6 0 -8 -5 -4 -12 4
-7 3 -8 -4 -4 -6 4 -8 14 -5 24 3 9 3 14 -2 10 -4 -4 -16 2 -27 14 -14 17 -16
24 -6 31 9 6 8 7 -4 3 -13 -4 -22 3 -33 24 -17 33 -19 50 -6 50 5 0 12 -11 15
-25 4 -14 11 -25 17 -25 8 0 7 5 -1 15 -7 8 -10 24 -7 35 3 13 1 18 -6 13 -7
-4 -6 1 2 10 14 17 26 24 17 9 -2 -4 0 -14 5 -22 6 -11 8 -5 4 18 -4 24 -2 31
6 26 7 -4 10 -2 7 7 -5 16 33 50 47 41 28 -18 45 7 24 34 -6 7 -1 18 11 29 11
10 20 14 20 10 0 -4 10 0 22 11 17 15 20 16 16 3 -4 -9 -1 -16 5 -16 7 0 13
12 14 25 1 18 -1 21 -8 11 -5 -8 -9 -10 -9 -5 0 5 -6 3 -14 -3 -11 -9 -13 -6
-13 14 0 13 3 22 8 19 5 -3 9 2 9 10 0 9 3 15 8 15 20 -3 33 2 30 14 -4 19 32
67 51 67 13 0 13 2 2 9 -20 13 -3 18 92 26 67 5 87 4 85 -5 -2 -7 4 -15 12
-17 13 -4 13 -3 0 6 -8 6 -13 11 -10 12 40 8 48 5 37 -13 -7 -10 -17 -18 -24
-18 -7 0 -12 -3 -10 -8 4 -13 -42 -64 -52 -58 -5 3 -7 -2 -4 -12 2 -11 -3 -25
-14 -33 -16 -13 -17 -12 -5 3 10 12 10 18 1 24 -8 5 -9 3 -4 -6 6 -9 2 -10
-16 -5 -22 7 -22 7 -6 -9 18 -19 23 -41 7 -31 -5 3 -10 0 -10 -8 0 -8 -9 -22
-21 -33 -13 -12 -19 -14 -17 -5 2 7 -3 15 -10 17 -7 1 -8 0 -2 -3 7 -3 7 -10
-2 -21 -10 -12 -10 -14 0 -8 7 4 12 1 12 -9 0 -9 -3 -14 -7 -12 -12 7 -55 -51
-43 -58 5 -3 31 22 57 56 26 34 85 109 130 166 l83 103 -129 0 -128 0 -154
-196z m37 6 c0 -10 -2 -17 -5 -14 -2 2 -16 -6 -29 -18 -22 -20 -22 -18 4 14
16 21 29 38 29 38 1 0 1 -9 1 -20z m-41 -70 c10 -17 -5 -33 -19 -21 -7 6 -17
7 -22 3 -4 -4 -2 1 5 11 15 19 27 22 36 7z m-227 -115 c8 -3 11 -13 7 -24 -3
-10 1 -24 10 -31 8 -7 15 -9 15 -5 0 4 8 1 17 -6 11 -10 14 -10 9 -1 -4 7 -2
12 6 12 8 0 27 -18 44 -41 16 -22 38 -53 50 -67 28 -36 35 -60 22 -68 -7 -5
-8 -2 -3 7 5 8 4 10 0 6 -5 -4 -10 -14 -11 -22 -2 -12 2 -12 17 -5 15 8 19 7
19 -4 0 -7 20 -35 45 -62 25 -26 45 -52 45 -58 0 -6 -12 2 -25 17 -14 15 -25
24 -25 18 0 -5 5 -13 10 -16 6 -3 10 -11 10 -16 0 -6 -4 -8 -8 -5 -4 2 -8 -4
-8 -15 0 -18 2 -18 12 -5 15 21 28 20 20 -1 -5 -16 -4 -15 9 1 14 18 15 18 34
-5 11 -13 20 -27 21 -30 0 -3 14 -20 30 -37 17 -18 30 -38 30 -46 0 -8 5 -18
12 -22 7 -5 8 -2 3 7 -6 11 -5 12 5 2 8 -7 14 -21 15 -31 1 -16 -8 -18 -94
-17 -90 0 -96 1 -99 21 -2 12 -15 32 -30 45 l-27 24 24 -27 c14 -16 20 -28 15
-28 -5 0 -20 17 -34 38 -14 20 -32 43 -40 50 -8 8 -10 11 -5 8 6 -2 11 4 11
14 0 15 -3 17 -15 7 -12 -10 -14 -9 -8 6 3 9 2 17 -4 17 -10 0 -79 65 -79 75
0 4 4 4 9 0 5 -3 13 0 17 6 4 8 3 9 -4 5 -15 -9 -15 -1 -2 25 14 25 3 44 -16
28 -16 -13 -19 -33 -4 -24 6 3 10 2 10 -3 0 -19 -14 -21 -32 -5 -20 18 -25 38
-6 27 7 -4 8 -3 4 4 -4 6 -14 8 -23 5 -10 -4 -14 -2 -9 5 3 6 2 13 -4 17 -5 3
-10 12 -10 18 0 7 4 6 10 -3 11 -17 13 -9 4 14 -6 15 -8 15 -21 -1 -14 -17
-14 -17 -9 0 3 10 2 16 -3 13 -12 -8 -48 37 -43 53 3 8 0 11 -6 8 -5 -4 -15 0
-22 8 -7 8 -9 15 -4 15 4 0 -7 15 -25 34 -26 27 -31 39 -26 57 6 21 5 22 -6 9
-8 -8 -13 -13 -12 -11 2 2 -1 9 -6 15 -7 8 17 10 82 8 51 -2 98 -5 105 -7z
m27 -25 c-3 -5 -1 -10 5 -10 6 0 8 -5 4 -11 -4 -8 -9 -7 -15 2 -7 12 -3 29 7
29 3 0 2 -4 -1 -10z"/>
<path d="M1245 1640 c3 -5 8 -10 11 -10 2 0 4 5 4 10 0 6 -5 10 -11 10 -5 0
-7 -4 -4 -10z"/>
<path d="M1120 1398 c0 -19 27 -31 36 -17 3 6 1 16 -5 22 -9 9 -11 7 -6 -8 7
-20 6 -20 -9 -1 -13 16 -16 17 -16 4z"/>
<path d="M1231 1224 c0 -11 3 -14 6 -6 3 7 2 16 -1 19 -3 4 -6 -2 -5 -13z"/>
<path d="M1115 1190 c3 -5 8 -10 11 -10 2 0 4 5 4 10 0 6 -5 10 -11 10 -5 0
-7 -4 -4 -10z"/>
<path d="M1366 1091 c-8 -12 4 -41 16 -41 6 0 5 6 -2 15 -6 8 -9 19 -5 25 3 5
4 10 1 10 -3 0 -7 -4 -10 -9z"/>
<path d="M1458 1873 c12 -2 32 -2 45 0 12 2 2 4 -23 4 -25 0 -35 -2 -22 -4z"/>
<path d="M1313 1845 c0 -8 4 -12 9 -9 5 3 6 10 3 15 -9 13 -12 11 -12 -6z"/>
<path d="M1421 1823 c0 -6 -4 -20 -7 -30 -5 -14 -4 -15 5 -7 7 7 11 20 8 30
-3 11 -5 14 -6 7z"/>
<path d="M1525 1819 c-4 -6 -5 -12 -2 -15 2 -3 7 2 10 11 7 17 1 20 -8 4z"/>
<path d="M1448 1737 c4 -14 7 -16 13 -5 12 19 11 25 -5 25 -8 0 -11 -8 -8 -20z"/>
<path d="M1586 1733 c-6 -14 -5 -15 5 -6 7 7 10 15 7 18 -3 3 -9 -2 -12 -12z"/>
<path d="M1230 1719 c0 -5 5 -7 10 -4 6 3 10 8 10 11 0 2 -4 4 -10 4 -5 0 -10
-5 -10 -11z"/>
<path d="M1470 1709 c0 -5 5 -7 10 -4 6 3 10 8 10 11 0 2 -4 4 -10 4 -5 0 -10
-5 -10 -11z"/>
<path d="M1060 1576 c7 -7 13 -7 20 0 6 6 3 10 -10 10 -13 0 -16 -4 -10 -10z"/>
<path d="M740 1561 c0 -5 5 -13 10 -16 6 -3 10 -2 10 4 0 5 -4 13 -10 16 -5 3
-10 2 -10 -4z"/>
<path d="M1286 1473 c-6 -14 -5 -15 5 -6 7 7 10 15 7 18 -3 3 -9 -2 -12 -12z"/>
<path d="M1235 1440 c-3 -6 1 -7 9 -4 18 7 21 14 7 14 -6 0 -13 -4 -16 -10z"/>
<path d="M603 1250 c0 -25 2 -35 4 -22 2 12 2 32 0 45 -2 12 -4 2 -4 -23z"/>
<path d="M886 1228 c-46 -57 -47 -61 -31 -77 17 -15 17 -15 12 7 -3 12 -2 20
2 17 5 -2 14 6 21 19 9 18 20 24 40 22 26 -2 73 -40 78 -64 3 -18 -15 -15 -22
4 -8 22 -23 9 -23 -21 0 -22 1 -23 11 -9 10 13 14 13 23 2 16 -20 12 -46 -10
-65 -19 -18 -20 -17 -8 7 11 23 11 23 -3 7 -8 -11 -12 -26 -9 -35 5 -11 3 -13
-7 -7 -8 5 -11 3 -8 -5 5 -15 -32 -57 -45 -52 -5 1 -6 -2 -2 -8 3 -5 1 -10 -4
-10 -6 0 -11 10 -12 23 -1 20 -1 21 -7 2 -5 -15 -16 -20 -42 -21 -39 0 -52 12
-44 41 6 20 6 20 -9 0 -11 -15 -12 -22 -4 -27 7 -5 1 -8 -14 -8 -46 0 -51 19
-16 64 17 22 33 43 35 46 2 2 8 -2 13 -10 9 -13 10 -13 6 0 -8 26 27 60 54 53
13 -3 22 -4 19 -2 -3 2 -14 12 -26 22 -21 17 -22 17 -61 -35 -22 -29 -59 -77
-83 -105 l-42 -53 130 0 129 0 60 78 c32 42 62 82 66 89 5 7 -19 44 -56 91
l-63 80 -48 -60z m75 1 l24 -20 -27 16 c-20 13 -27 13 -31 3 -4 -8 -6 -7 -6 5
-1 23 12 22 40 -4z m70 -86 c10 -11 10 -14 2 -9 -7 4 -13 3 -13 -3 0 -5 5 -11
11 -13 7 -2 7 -8 -3 -15 -11 -9 -13 -5 -14 23 -1 39 -1 39 17 17z"/>
<path d="M1315 1269 c-4 -6 -5 -12 -2 -15 2 -3 7 2 10 11 7 17 1 20 -8 4z"/>
<path d="M1380 1200 c-8 -5 -12 -12 -9 -15 4 -3 12 1 19 10 14 17 11 19 -10 5z"/>
<path d="M1415 1120 c-3 -6 1 -7 9 -4 18 7 21 14 7 14 -6 0 -13 -4 -16 -10z"/>
<path d="M1090 1105 c-7 -9 -11 -17 -9 -20 3 -2 10 5 17 15 14 24 10 26 -8 5z"/>
<path d="M825 1090 c-3 -5 -1 -10 4 -10 6 0 11 5 11 10 0 6 -2 10 -4 10 -3 0
-8 -4 -11 -10z"/>
<path d="M1120 1079 c0 -5 5 -7 10 -4 6 3 10 8 10 11 0 2 -4 4 -10 4 -5 0 -10
-5 -10 -11z"/>
<path d="M685 1039 c-4 -6 -5 -12 -2 -15 2 -3 7 2 10 11 7 17 1 20 -8 4z"/>
<path d="M663 1013 c4 -3 1 -13 -6 -22 -11 -14 -10 -14 5 -2 16 12 16 31 1 31
-4 0 -3 -3 0 -7z"/>
<path d="M1024 1011 c4 -6 3 -18 -3 -25 -8 -9 -7 -13 2 -13 16 0 20 34 5 43
-7 4 -8 2 -4 -5z"/>
<path d="M966 982 c-3 -5 1 -9 9 -9 8 0 12 4 9 9 -3 4 -7 8 -9 8 -2 0 -6 -4
-9 -8z"/>
<path d="M698 923 c7 -3 16 -2 19 1 4 3 -2 6 -13 5 -11 0 -14 -3 -6 -6z"/>
<path d="M1258 873 c7 -3 16 -2 19 1 4 3 -2 6 -13 5 -11 0 -14 -3 -6 -6z"/>
<path d="M1410 870 c8 -5 20 -10 25 -10 6 0 3 5 -5 10 -8 5 -19 10 -25 10 -5
0 -3 -5 5 -10z"/>
<path d="M1037 859 c7 -7 15 -10 18 -7 3 3 -2 9 -12 12 -14 6 -15 5 -6 -5z"/>
<path d="M1741 844 c0 -11 3 -14 6 -6 3 7 2 16 -1 19 -3 4 -6 -2 -5 -13z"/>
<path d="M497 819 c7 -7 15 -10 18 -7 3 3 -2 9 -12 12 -14 6 -15 5 -6 -5z"/>
<path d="M667 823 c-10 -21 0 -38 21 -35 21 3 22 1 22 -90 l0 -93 30 -1 30 -1
0 95 c0 89 1 94 20 89 16 -4 20 0 20 19 0 23 -3 24 -69 24 -39 0 -72 -3 -74
-7z m80 -29 c-3 -3 -12 -4 -19 -1 -8 3 -5 6 6 6 11 1 17 -2 13 -5z m-10 -56
c-3 -7 -5 -2 -5 12 0 14 2 19 5 13 2 -7 2 -19 0 -25z"/>
<path d="M850 718 l0 -113 31 -1 c31 -1 31 -1 27 41 -5 39 -3 43 27 59 25 14
32 23 28 39 -4 19 -3 20 6 5 13 -19 4 -51 -12 -41 -6 4 -8 -2 -5 -15 4 -15 2
-22 -9 -22 -8 0 -11 5 -8 10 3 6 1 10 -4 10 -14 0 -14 -11 3 -50 11 -27 19
-33 45 -34 17 -1 31 0 31 2 0 1 -9 20 -20 41 -16 33 -17 40 -5 45 11 4 15 21
15 61 0 50 -2 56 -26 65 -14 6 -48 10 -75 10 l-49 0 0 -112z m128 74 c5 -17
-13 -15 -27 2 -10 12 -9 14 5 12 10 -2 20 -8 22 -14z m-38 -37 c0 -24 -5 -35
-15 -35 -10 0 -15 11 -15 35 0 24 5 35 15 35 10 0 15 -11 15 -35z m-56 -19
c-3 -8 -1 -17 5 -21 6 -3 11 -11 11 -16 0 -6 -5 -7 -12 -3 -7 4 -8 3 -4 -4 4
-7 2 -20 -3 -29 -8 -14 -10 -4 -11 40 0 35 4 56 10 52 5 -3 7 -12 4 -19z"/>
<path d="M1090 823 c0 -5 -13 -55 -28 -113 l-29 -105 29 0 c18 0 30 6 34 18 3
11 16 17 35 17 21 0 29 -5 29 -17 0 -13 8 -18 30 -18 17 0 29 5 27 10 -2 6
-15 56 -28 112 l-24 103 -37 0 c-21 0 -38 -3 -38 -7z m56 -51 l1 -27 -13 30
c-17 39 -17 23 0 -42 14 -51 13 -53 -6 -53 -18 0 -19 5 -13 43 4 28 3 37 -3
28 -8 -10 -10 -6 -9 15 3 50 41 56 43 6z m-52 -74 c-3 -4 -9 -8 -15 -8 -5 0
-9 4 -9 8 0 5 7 9 15 9 8 0 12 -4 9 -9z m88 -55 c-9 -14 -10 -14 -16 5 -9 29
3 51 16 28 5 -10 5 -23 0 -33z m-72 27 c12 -8 13 -10 1 -10 -8 0 -23 -7 -33
-17 -11 -10 -18 -12 -18 -4 0 6 7 14 15 17 8 4 12 10 9 15 -7 12 7 11 26 -1z"/>
<path d="M1260 718 l0 -113 72 5 73 5 3 95 c3 113 -2 120 -90 120 l-58 0 0
-112z m50 79 c-18 -14 -26 -132 -10 -142 14 -9 12 -22 -4 -28 -11 -4 -14 11
-14 79 -1 68 2 86 16 94 24 13 30 12 12 -3z m40 -82 c0 -60 -3 -75 -15 -75
-12 0 -15 15 -15 75 0 60 3 75 15 75 12 0 15 -15 15 -75z m37 33 c-3 -8 -6 -5
-6 6 -1 11 2 17 5 13 3 -3 4 -12 1 -19z m0 -80 c-2 -13 -4 -3 -4 22 0 25 2 35
4 23 2 -13 2 -33 0 -45z"/>
<path d="M1460 718 l0 -113 30 0 30 0 0 113 0 112 -30 0 -30 0 0 -112z m29
-82 c-9 -8 -10 -6 -5 7 3 10 7 51 8 90 l2 72 3 -79 c3 -52 0 -83 -8 -90z"/>
<path d="M1570 717 l0 -114 28 4 c26 4 27 6 24 61 -4 65 6 62 32 -9 13 -35 23
-48 42 -52 13 -2 26 -2 28 2 2 3 5 54 5 114 l2 107 -32 0 -31 0 4 -64 c2 -36
0 -62 -4 -60 -4 3 -8 10 -8 15 0 6 -10 33 -21 60 -17 39 -26 49 -45 49 -24 0
-24 -1 -24 -113z m39 56 c-12 -15 -12 -16 3 -11 19 8 33 -18 16 -28 -7 -5 -8
-2 -3 6 5 9 4 11 -3 6 -7 -4 -12 -17 -13 -29 -1 -15 -4 -10 -9 12 -7 31 6 78
19 66 2 -3 -2 -12 -10 -22z m91 -87 c0 -21 -6 -36 -16 -40 -8 -3 -12 -2 -9 3
3 5 1 12 -5 16 -5 3 -10 11 -10 16 0 6 4 8 9 4 5 -3 12 4 16 15 9 30 15 24 15
-14z"/>
<path d="M1792 812 c-14 -14 -19 -36 -20 -91 -3 -102 5 -113 81 -109 l62 3 5
58 5 57 -37 0 c-31 0 -38 -4 -38 -20 0 -21 15 -27 25 -9 4 5 12 8 18 6 14 -4
19 -44 7 -52 -6 -4 -8 -10 -5 -15 3 -4 -4 -10 -15 -13 -20 -5 -20 -5 0 21 16
20 18 27 8 33 -9 6 -15 1 -18 -14 -3 -12 -12 -22 -20 -22 -12 0 -16 17 -18 73
-3 68 -2 72 18 72 17 0 20 -4 15 -20 -5 -17 -2 -20 24 -20 28 0 31 3 31 30 0
19 -7 33 -19 40 -31 16 -89 12 -109 -8z m103 -20 c-3 -3 -11 0 -18 7 -9 10 -8
11 6 5 10 -3 15 -9 12 -12z m-76 -15 c0 -9 -2 -8 -6 1 -2 6 -10 9 -15 6 -7 -4
-8 -2 -4 5 9 13 26 5 25 -12z m-6 -81 c0 -31 -3 -59 -6 -62 -3 -3 -5 19 -5 49
1 30 -3 60 -7 67 -5 8 -3 11 6 8 9 -3 13 -22 12 -62z"/>
<path d="M466 755 c-3 -9 -10 -14 -15 -10 -5 3 -12 1 -15 -4 -8 -13 22 -7 36
7 6 6 9 14 6 17 -3 3 -8 -1 -12 -10z"/>
<path d="M369 663 c-13 -16 -12 -17 4 -4 9 7 17 15 17 17 0 8 -8 3 -21 -13z"/>
<path d="M645 640 c-3 -6 1 -7 9 -4 18 7 21 14 7 14 -6 0 -13 -4 -16 -10z"/>
<path d="M1763 595 c0 -8 4 -12 9 -9 5 3 6 10 3 15 -9 13 -12 11 -12 -6z"/>
<path d="M1425 591 c-3 -5 0 -13 6 -17 7 -4 9 -3 5 4 -3 5 0 13 6 15 9 4 10 6
1 6 -6 1 -14 -3 -18 -8z"/>
<path d="M943 575 c0 -8 4 -12 9 -9 5 3 6 10 3 15 -9 13 -12 11 -12 -6z"/>
<path d="M998 570 c-10 -11 -13 -22 -8 -25 6 -4 10 -1 10 5 0 6 5 8 12 4 7 -5
8 -3 3 6 -4 7 -2 16 6 21 8 5 9 9 4 9 -6 0 -18 -9 -27 -20z"/>
<path d="M1217 563 c3 -7 6 -13 8 -13 2 0 5 6 8 13 3 8 -1 14 -8 14 -7 0 -11
-6 -8 -14z"/>
<path d="M1255 570 c-3 -5 -1 -10 4 -10 6 0 11 5 11 10 0 6 -2 10 -4 10 -3 0
-8 -4 -11 -10z"/>
<path d="M1397 561 c-4 -17 -3 -21 5 -13 5 5 8 16 6 23 -3 8 -7 3 -11 -10z"/>
<path d="M1893 567 c0 -8 6 -14 14 -14 9 0 10 4 2 14 -6 7 -12 13 -14 13 -1 0
-2 -6 -2 -13z"/>
<path d="M896 558 c3 -5 10 -6 15 -3 13 9 11 12 -6 12 -8 0 -12 -4 -9 -9z"/>
<path d="M1689 568 c-5 -9 -5 -48 -1 -43 6 6 11 45 5 45 -2 0 -4 -1 -4 -2z"/>
<path d="M1815 560 c-3 -5 -1 -10 4 -10 6 0 11 5 11 10 0 6 -2 10 -4 10 -3 0
-8 -4 -11 -10z"/>
<path d="M780 546 c0 -2 7 -9 15 -16 9 -7 15 -8 15 -2 0 5 -7 12 -15 16 -8 3
-15 4 -15 2z"/>
<path d="M1584 530 c0 -13 4 -16 10 -10 7 7 7 13 0 20 -6 6 -10 3 -10 -10z"/>
<path d="M710 495 c0 -27 4 -44 10 -40 5 3 7 12 3 20 -8 22 10 18 30 -6 19
-22 35 -20 21 3 -4 7 -8 24 -8 38 -1 20 -7 26 -28 28 -27 3 -28 2 -28 -43z
m50 14 c0 -5 -9 -9 -20 -9 -19 0 -26 11 -14 23 8 8 34 -3 34 -14z"/>
<path d="M840 501 c0 -36 3 -39 30 -43 17 -3 33 -1 36 4 3 4 -6 8 -20 8 -14 0
-26 5 -26 10 0 6 9 10 20 10 11 0 20 5 20 11 0 6 -9 8 -20 4 -14 -4 -20 -2
-20 8 0 10 7 13 20 10 11 -3 20 0 20 6 0 6 -13 11 -30 11 -28 0 -30 -2 -30
-39z"/>
<path d="M964 524 c3 -9 9 -27 12 -40 3 -13 12 -24 20 -24 14 0 48 69 39 79
-8 8 -25 -20 -25 -41 0 -29 -18 -20 -25 12 -4 17 -11 30 -17 30 -6 0 -7 -7 -4
-16z"/>
<path d="M1113 534 c-20 -9 -16 -72 5 -76 39 -9 53 3 50 41 -3 36 -23 48 -55
35z m47 -41 c0 -20 -4 -24 -22 -21 -25 3 -37 36 -17 48 20 13 39 0 39 -27z"/>
<path d="M1240 500 c0 -39 1 -40 33 -39 23 1 26 3 10 6 -19 4 -23 11 -23 39 0
19 -4 34 -10 34 -5 0 -10 -18 -10 -40z"/>
<path d="M1362 503 c3 -35 6 -38 33 -38 27 0 30 3 33 38 2 21 -1 37 -7 37 -6
0 -11 -16 -11 -35 0 -24 -5 -35 -15 -35 -10 0 -15 11 -15 35 0 19 -5 35 -11
35 -6 0 -9 -16 -7 -37z"/>
<path d="M1490 530 c0 -5 7 -10 15 -10 11 0 15 -11 15 -36 0 -20 4 -33 10 -29
5 3 7 19 3 35 -4 23 -2 30 11 30 9 0 16 5 16 10 0 6 -16 10 -35 10 -19 0 -35
-4 -35 -10z"/>
<path d="M1620 501 c0 -22 5 -43 10 -46 6 -4 10 12 10 39 0 25 -4 46 -10 46
-5 0 -10 -18 -10 -39z"/>
<path d="M1717 533 c-4 -3 -7 -21 -7 -39 0 -33 16 -44 53 -36 23 5 24 67 1 76
-20 8 -39 8 -47 -1z m51 -37 c-2 -13 -12 -22 -25 -24 -19 -3 -23 1 -23 21 0
14 6 27 13 30 22 7 38 -5 35 -27z"/>
<path d="M1850 494 c0 -28 4 -43 10 -39 6 3 8 18 4 33 l-5 27 23 -27 c13 -16
27 -28 31 -28 4 0 6 19 6 43 -2 41 -2 41 -8 9 l-6 -34 -18 31 c-25 43 -37 39
-37 -15z"/>
<path d="M1665 479 c-4 -6 -4 -13 -1 -16 3 -4 6 -1 6 6 0 7 5 9 12 5 7 -4 8
-3 4 4 -9 15 -13 15 -21 1z"/>
<path d="M1040 439 c-12 -8 -11 -9 6 -4 12 3 28 0 35 -7 19 -18 46 -21 55 -7
4 8 3 9 -4 5 -6 -4 -25 0 -41 9 -35 18 -32 17 -51 4z"/>
<path d="M1317 431 c-4 -17 -3 -21 5 -13 5 5 8 16 6 23 -3 8 -7 3 -11 -10z"/>
<path d="M1558 443 c7 -3 16 -2 19 1 4 3 -2 6 -13 5 -11 0 -14 -3 -6 -6z"/>
<path d="M1599 448 c-5 -18 -6 -38 -1 -34 7 8 12 36 6 36 -2 0 -4 -1 -5 -2z"/>
<path d="M1809 443 c-1 -5 -1 -11 0 -15 0 -3 -15 -5 -34 -4 -19 2 -32 0 -30
-4 3 -4 19 -7 36 -6 22 1 33 7 35 19 1 9 0 17 -2 17 -2 0 -5 -3 -5 -7z"/>
<path d="M700 436 c0 -2 7 -7 16 -10 8 -3 12 -2 9 4 -6 10 -25 14 -25 6z"/>
<path d="M1340 435 c0 -7 30 -13 34 -7 3 4 -4 9 -15 9 -10 1 -19 0 -19 -2z"/>
<path d="M1846 425 c-11 -8 -15 -15 -9 -15 6 0 16 7 23 15 16 19 11 19 -14 0z"/>
<path d="M1879 423 c-13 -16 -12 -17 4 -4 16 13 21 21 13 21 -2 0 -10 -8 -17
-17z"/>
<path d="M1971 424 c0 -11 3 -14 6 -6 3 7 2 16 -1 19 -3 4 -6 -2 -5 -13z"/>
<path d="M1185 420 c-3 -6 1 -7 9 -4 18 7 21 14 7 14 -6 0 -13 -4 -16 -10z"/>
<path d="M1416 422 c-2 -4 4 -8 14 -8 10 0 16 4 14 8 -3 4 -9 8 -14 8 -5 0
-11 -4 -14 -8z"/>
</g>
</svg>
